<?xml version="1.0" standalone="no"?><!DOCTYPE svg PUBLIC "-//W3C//DTD SVG 1.1//EN" "http://www.w3.org/Graphics/SVG/1.1/DTD/svg11.dtd"><svg t="1623249554702" class="icon" viewBox="0 0 1024 1024" version="1.1" xmlns="http://www.w3.org/2000/svg" p-id="5949" xmlns:xlink="http://www.w3.org/1999/xlink" width="200" height="200"><defs><style type="text/css"></style></defs><path d="M652.224 128a64 64 0 0 1 57.216 35.328L755.84 256H864a96 96 0 0 1 95.552 86.784L960 352v448a96 96 0 0 1-96 96h-704A96 96 0 0 1 64 800v-448A96 96 0 0 1 160 256h108.16l46.336-92.608a64 64 0 0 1 49.28-34.88L371.84 128z m-0.064 63.936L371.776 192l-64 128H160a32 32 0 0 0-32 32v448a32 32 0 0 0 32 32h704a32 32 0 0 0 32-32v-448a32 32 0 0 0-32-32h-147.776L652.16 191.936zM512 384a192 192 0 1 1 0 384 192 192 0 0 1 0-384z m0 64a128 128 0 1 0 0 256 128 128 0 0 0 0-256z" p-id="5950"></path></svg>