<svg t="1624785776454" class="icon" viewBox="0 0 1024 1024" version="1.1" xmlns="http://www.w3.org/2000/svg" p-id="20608" width="200" height="200"><path d="M897.05092 473.7c-18.2 17.5-37.2 36.3-58.6 47.8-38.2 20.5-50.2 25.5-107.2 30.2-44.7-3.3-67.2-5.7-115.4-29.4-23-11.3-25.3-22.6-6.4-41.1 31.2-30.7 70.9-42.8 111.7-52.4 36-8.4 72.4-11.9 108.5-0.8 22.1 6.8 44 14.2 65 23.7 1.8 0.8 5.6 5.4 6.1 10.3 0.6 4.8-2 10-3.7 11.7m-488.7 48.6c-48.2 23.6-70.7 26.1-115.4 29.4-57-4.7-69-9.7-107.2-30.2-21.5-11.5-40.4-30.3-58.6-47.8-1.9-1.8-5.1-7.3-4.3-12.5 0.7-4.5 5-8.8 6.7-9.6 21-9.5 43-16.9 65-23.7 36.1-11.1 72.5-7.6 108.5 0.8 40.9 9.5 80.6 21.7 111.7 52.4 18.8 18.6 16.6 29.9-6.4 41.2M985.55092 342.9c-3.2-23.1-13.6-28.9-35.8-19.4-9 3.9-20 8.5-28.9 6.8-35.9-7-71.9-14.5-106.9-25.1C743.45092 283.9 677.25092 294 612.95092 327c-24.4 12.5-48.5 29-74.5 33.8-8.8 1.6-17.6 2.8-26.3 3.5-8.7-0.8-17.5-1.9-26.3-3.5-26.2-4.8-50.3-21.3-74.7-33.8C346.85092 294 280.65092 283.9 210.05092 305.2c-35 10.6-71 18.1-106.9 25.1-8.9 1.7-19.8-2.9-28.9-6.8-22-9.5-32.4-3.6-35.7 19.4C30.75092 398.3 26.65092 453.8 38.05092 509.1c16.3 79 48.3 148.7 122.8 189.8 18.7 10.3 38 19 58.6 25.8 11.8 3.9 27.1 6.4 38.6 4.9 28.6-3.6 57.7-8.4 84.9-17.6 37-12.5 71.3-33.5 108.8-43.5 19.7-5.3 39.7-10 60.3-11.6 20.6 1.5 40.5 6.3 60.3 11.6 37.5 10 71.8 31 108.8 43.5 27.2 9.2 56.3 14 84.9 17.6 11.5 1.5 26.7-1 38.6-4.9 20.6-6.7 39.9-15.4 58.6-25.8 74.5-41.1 106.5-110.7 122.8-189.8 11.3-55.3 7.3-110.7-0.5-166.2" fill="#515151" p-id="20609"></path></svg>