<?xml version="1.0" standalone="no"?><!DOCTYPE svg PUBLIC "-//W3C//DTD SVG 1.1//EN" "http://www.w3.org/Graphics/SVG/1.1/DTD/svg11.dtd"><svg t="1624777397536" class="icon" viewBox="0 0 1024 1024" version="1.1" xmlns="http://www.w3.org/2000/svg" p-id="1857" xmlns:xlink="http://www.w3.org/1999/xlink" width="200" height="200"><defs><style type="text/css"></style></defs><path d="M844.8 256H716.8V153.6c0-30.72-20.48-51.2-51.2-51.2H358.4c-25.6 0-51.2 25.6-51.2 51.2v102.4H179.2c-15.36 0-25.6 10.24-25.6 25.6s10.24 25.6 25.6 25.6H204.8v512c0 56.32 46.08 102.4 102.4 102.4h409.6c56.32 0 102.4-46.08 102.4-102.4V307.2h25.6c15.36 0 25.6-10.24 25.6-25.6s-10.24-25.6-25.6-25.6zM358.4 153.6h307.2v102.4H358.4V153.6z m409.6 665.6c0 30.72-20.48 51.2-51.2 51.2H307.2c-30.72 0-51.2-20.48-51.2-51.2V307.2h512v512z m-153.6-128v-256c0-15.36-10.24-25.6-25.6-25.6s-25.6 10.24-25.6 25.6v256c0 15.36 10.24 25.6 25.6 25.6s25.6-10.24 25.6-25.6z m-179.2 25.6c15.36 0 25.6-10.24 25.6-25.6v-256c0-15.36-10.24-25.6-25.6-25.6s-25.6 10.24-25.6 25.6v256c0 15.36 10.24 25.6 25.6 25.6z" p-id="1858"></path></svg>