<svg t="1623172768806" class="icon" viewBox="0 0 1024 1024" version="1.1" xmlns="http://www.w3.org/2000/svg" p-id="18037" width="200" height="200"><path d="M306.56 935.68c-21.12 0-41.6-6.4-59.52-19.84-31.36-23.04-47.36-61.44-40.32-99.84l26.88-157.44c1.92-12.16-1.92-24.96-10.88-33.28l-115.2-112c-28.16-27.52-37.76-67.2-25.6-104.32s43.52-64 81.92-69.12l158.08-23.04c12.16-1.92 23.04-9.6 28.8-20.48l71.04-143.36c17.28-35.2 52.48-56.96 91.52-56.96 39.04 0 74.24 21.76 91.52 56.96l71.04 143.36c5.76 10.88 16 19.2 28.8 20.48l158.08 23.04c38.4 5.76 70.4 32 81.92 69.12 12.16 37.12 1.92 77.44-25.6 104.32l-114.56 112c-8.96 8.96-12.8 21.12-10.88 33.28l26.88 157.44c6.4 38.4-8.96 76.8-40.32 99.84-31.36 23.04-72.96 26.24-107.52 7.68L531.2 849.28c-10.88-5.76-24.32-5.76-35.2 0l-141.44 74.24c-16 8.32-32 12.16-48 12.16zM513.28 160c-14.72 0-27.52 7.68-33.92 21.12L408.32 324.48c-14.72 30.08-43.52 51.2-76.8 55.68L173.44 403.2c-14.72 1.92-26.24 11.52-30.72 25.6-4.48 14.08-1.28 28.8 9.6 39.04l114.56 112c24.32 23.68 35.2 56.96 29.44 90.24L268.8 827.52c-2.56 14.72 3.2 28.16 15.36 37.12 12.16 8.96 26.88 9.6 39.68 3.2L465.28 793.6c29.44-15.36 65.28-15.36 94.72 0l141.44 74.24c12.8 7.04 28.16 5.76 39.68-2.56 12.16-8.96 17.28-22.4 15.36-37.12l-26.88-157.44c-5.76-33.28 5.12-66.56 29.44-90.24l114.56-112c10.24-10.24 14.08-24.96 9.6-39.04-4.48-14.08-16-23.68-30.72-25.6l-158.08-23.04c-33.28-5.12-62.08-25.6-76.8-55.68l-70.4-144c-6.4-13.44-19.2-21.12-33.92-21.12z" fill="#515151" p-id="18038"></path></svg>