<svg t="1624209440206" class="icon" viewBox="0 0 1024 1024" version="1.1" xmlns="http://www.w3.org/2000/svg" p-id="2133" width="200" height="200"><path d="M512 51.3024a51.2 51.2 0 0 1 50.176 41.984l0.9216 9.216-0.3072 357.9904 358.1952 0.3072a51.2 51.2 0 0 1 9.216 101.5808l-9.216 0.8192-358.1952-0.3072-0.1024 358.1952a51.2 51.2 0 0 1-101.5808 9.216l-0.8192-9.216 0.1024-358.1952L102.4 562.7904a51.2 51.2 0 0 1-9.216-101.5808L102.4 460.3904l357.9904 0.1024 0.3072-357.9904a51.2 51.2 0 0 1 51.2-51.2z" p-id="2134"></path></svg>