<?xml version="1.0" standalone="no"?><!DOCTYPE svg PUBLIC "-//W3C//DTD SVG 1.1//EN" "http://www.w3.org/Graphics/SVG/1.1/DTD/svg11.dtd"><svg t="1623167748248" class="icon" viewBox="0 0 1024 1024" version="1.1" xmlns="http://www.w3.org/2000/svg" p-id="7031" xmlns:xlink="http://www.w3.org/1999/xlink" width="200" height="200"><defs><style type="text/css"></style></defs><path d="M826.237891 179.270966c-39.543621-27.679409-84.441181-40.470737-129.299855-40.470737-68.500117 0-136.89688 29.7997-186.082092 81.875752-49.177026-52.068889-117.591185-81.875752-186.083116-81.875752-44.858674 0-89.74907 12.783141-129.298831 40.470737C85.5924 256.220522 58.878992 407.671886 135.820362 517.561669c0 0 30.274514 38.451754 50.41011 60.385299 16.493649 17.98256 246.951415 239.220337 309.137733 297.859875 0 0 7.382131 7.061836 15.533788 7.061836 8.80862 0 15.426341-7.061836 15.426341-7.061836C588.507488 817.167305 818.98879 595.930551 835.482439 577.946968c20.133549-21.933545 50.399877-60.385299 50.399877-60.385299C962.831872 407.671886 936.12665 256.220522 826.237891 179.270966zM847.399863 489.017566c-4.940522 6.251378-30.343075 38.186717-47.195905 56.55097-13.873985 15.058974-236.016365 227.823775-281.241382 271.123954l0 0c-1.963725 2.509147-5.042853 3.740184-8.480138 3.740184-1.707898 0-3.477194-0.490164-5.098111-1.199315-38.170345-36.542264-269.618671-258.193457-283.875372-273.664823-16.850783-18.364253-42.247196-50.291406-47.195905-56.55097-29.323862-42.466184-40.524972-93.76964-31.561833-144.638191 9.05012-51.297316 37.523615-96.000448 80.193437-125.877919 29.720905-20.812001 64.936965-31.810496 101.830223-31.810496 55.997362 0 111.129007 24.375154 151.264099 66.871013l34.817993 36.861536 34.82004-36.861536c40.134069-42.496883 95.265714-66.871013 151.263076-66.871013 36.893258 0 72.109318 10.998495 101.830223 31.810496 42.668799 29.877471 71.143317 74.580602 80.193437 125.877919C887.933021 395.246903 876.724749 446.551382 847.399863 489.017566z" p-id="7032"></path></svg>