<?xml version="1.0" standalone="no"?><!DOCTYPE svg PUBLIC "-//W3C//DTD SVG 1.1//EN" "http://www.w3.org/Graphics/SVG/1.1/DTD/svg11.dtd"><svg t="1623558110971" class="icon" viewBox="0 0 1024 1024" version="1.1" xmlns="http://www.w3.org/2000/svg" p-id="2562" xmlns:xlink="http://www.w3.org/1999/xlink" width="200" height="200"><defs><style type="text/css"></style></defs><path d="M949.6 493.5c-2.3-53.5-14.8-106.2-37-155-22.9-50.5-55.6-95.8-96.4-133.3-80.1-74.5-186.8-113.6-296-108.6-109.3 5-212 53.5-285.3 134.8-30.7 33.8-55.5 72.4-73.6 114.3-1.9 4.4-6.7 6.8-11.4 5.7l-63.8-15.5c-7.4-1.8-13.9 5.1-11.8 12.4l32 108.7 31.9 108.5c2.1 7.3 11.4 9.5 16.7 4l77-82.1 77.2-82.3c5.2-5.5 2.5-14.6-4.9-16.3l-55.4-13.4c-6.1-1.5-9.3-8.3-6.5-13.9 13.6-27.4 31-52.8 51.6-75.5 59-65.4 141.8-104.5 229.8-108.4 88-4 174 27.5 238.6 87.3 134.9 124.7 144.2 337 20.8 473.3-59.1 65.3-141.8 104.3-229.9 108.2-88 4-174-27.5-238.7-87.3-7-7.2-16.6-11.6-27.1-11.6-21.5 0-39 18.4-39 41.1 0 11.8 4.7 22.5 12.3 30 80.1 74.5 186.9 113.7 296.2 108.7 53-2.3 105.1-15 153.3-37.3 50.1-23.2 95-56.3 132-97.3 37.3-41.1 66-89.2 84.3-141.5 17.6-50.6 25.5-104.1 23.1-157.7z" p-id="2563"></path></svg>