<?xml version="1.0" standalone="no"?><!DOCTYPE svg PUBLIC "-//W3C//DTD SVG 1.1//EN" "http://www.w3.org/Graphics/SVG/1.1/DTD/svg11.dtd"><svg t="1623226059001" class="icon" viewBox="0 0 1024 1024" version="1.1" xmlns="http://www.w3.org/2000/svg" p-id="1966" xmlns:xlink="http://www.w3.org/1999/xlink" ><defs><style type="text/css"></style></defs><path d="M864.224 64 159.776 64C106.88 64 64 106.88 64 159.776L64 288l0 32c0 17.664 14.336 32 32 32s32-14.336 32-32L128 288 128 191.904C128 156.608 156.608 128 191.904 128l640.224 0C867.392 128 896 156.608 896 191.904L896 288l0 32c0 17.664 14.336 32 32 32s32-14.336 32-32L960 288 960 159.776C960 106.88 917.12 64 864.224 64z" p-id="1967"></path><path d="M928 672c-17.664 0-32 14.336-32 32l0 32 0 96.096C896 867.392 867.392 896 832.096 896L191.904 896C156.608 896 128 867.392 128 832.096L128 736l0-32c0-17.664-14.336-32-32-32s-32 14.336-32 32l0 32 0 128.224C64 917.12 106.88 960 159.776 960l704.416 0C917.12 960 960 917.12 960 864.224L960 736l0-32C960 686.336 945.664 672 928 672z" p-id="1968"></path><path d="M928.16 480 95.84 480C78.272 480 64 494.336 64 512s14.272 32 31.84 32l832.288 0C945.728 544 960 529.664 960 512S945.728 480 928.16 480z" p-id="1969"></path></svg>