<?xml version="1.0" standalone="no"?><!DOCTYPE svg PUBLIC "-//W3C//DTD SVG 1.1//EN" "http://www.w3.org/Graphics/SVG/1.1/DTD/svg11.dtd"><svg t="1624265592407" class="icon" viewBox="0 0 1024 1024" version="1.1" xmlns="http://www.w3.org/2000/svg" p-id="1339" xmlns:xlink="http://www.w3.org/1999/xlink" width="200" height="200"><defs><style type="text/css"></style></defs><path d="M904.8 843.4L709.9 648.5c48.5-58.2 77.8-133 77.8-214.6 0-185.1-150.6-335.7-335.7-335.7S116.3 248.8 116.3 433.9 266.9 769.6 452 769.6c81.6 0 156.4-29.3 214.6-77.8l194.8 194.8c6 6 13.8 9 21.7 9s15.7-3 21.7-9c11.9-11.9 11.9-31.3 0-43.2z m-452.7-135c-151.4 0-274.5-123.1-274.5-274.5s123.1-274.5 274.5-274.5c151.3 0 274.5 123.1 274.5 274.5S603.4 708.4 452.1 708.4z" p-id="1340"></path></svg>