<?xml version="1.0" standalone="no"?><!DOCTYPE svg PUBLIC "-//W3C//DTD SVG 1.1//EN" "http://www.w3.org/Graphics/SVG/1.1/DTD/svg11.dtd"><svg t="1624250941063" class="icon" viewBox="0 0 1024 1024" version="1.1" xmlns="http://www.w3.org/2000/svg" p-id="30992" xmlns:xlink="http://www.w3.org/1999/xlink" width="200" height="200"><defs><style type="text/css"></style></defs><path d="M982.016 409.6L652.8 48.128a32 32 0 0 0-46.08 0 36.608 36.608 0 0 0-13.056 33.024v190.208A592.128 592.128 0 0 0 149.248 486.4c-102.4 128-83.968 325.632-51.2 358.4 39.68-203.264 278.272-245.504 495.616-245.504v196.608a49.152 49.152 0 0 0 6.656 25.6 39.168 39.168 0 0 0 46.08 0L975.36 467.968a41.728 41.728 0 0 0 13.312-32.768 38.656 38.656 0 0 0-6.656-25.6" fill="#404040" p-id="30993"></path></svg>