<?xml version="1.0" standalone="no"?><!DOCTYPE svg PUBLIC "-//W3C//DTD SVG 1.1//EN" "http://www.w3.org/Graphics/SVG/1.1/DTD/svg11.dtd"><svg t="1623776394976" class="icon" viewBox="0 0 1024 1024" version="1.1" xmlns="http://www.w3.org/2000/svg" p-id="8249" xmlns:xlink="http://www.w3.org/1999/xlink" width="200" height="200"><defs><style type="text/css"></style></defs><path d="M1016.832 547.84s0-101.376-93.184-440.832c0 0-28.672-99.84-64.512-99.84H436.736c-26.112 0-93.184 18.944-93.184 71.68v533.504s186.88 147.456 186.88 335.872c5.12 9.728-9.216 68.608 60.416 68.608 0 0 216.576-28.16 119.296-413.184h217.088s88.064 9.216 89.6-55.808zM193.024 623.616s38.912 0.512 38.912-41.472V30.208s0-23.04-27.648-23.04H71.68s-32.768 0-32.768 34.816L7.168 590.336s0.512 33.28 32.256 33.28h153.6z" p-id="8250"></path></svg>