<?xml version="1.0" standalone="no"?><!DOCTYPE svg PUBLIC "-//W3C//DTD SVG 1.1//EN" "http://www.w3.org/Graphics/SVG/1.1/DTD/svg11.dtd"><svg t="1623776242405" class="icon" viewBox="0 0 1024 1024" version="1.1" xmlns="http://www.w3.org/2000/svg" p-id="7332" xmlns:xlink="http://www.w3.org/1999/xlink" width="200" height="200"><defs><style type="text/css"></style></defs><path d="M593 928.15c3.38 0 6.76-0.26 10.14-0.76 55.26-5.75 92.89-56.38 88.14-109.52-9.5-104.89-28.26-167.03-28.26-167.03H789.3c67.9 0 119.91-60.27 109.78-127.4l-42.89-285.8c-12.26-81.52-82.28-141.77-164.67-141.77H179.18c-30.76 0-55.52 24.89-55.52 55.52v444.09c0 30.76 24.89 55.52 55.52 55.52h111.26c5 0 86.77 0.12 108.78 11 29.13 14.25 69.38 58.89 80.88 99.28 7 24.5 20.38 92.63 20.38 92.63 8.26 43.48 47.5 74.24 92.52 74.24zM345.58 151.63h346.06c55.38 0 101.52 39.76 109.78 94.51l42.76 285.8c2.51 16.26-1.99 32.14-12.75 44.52-10.76 12.38-25.76 19.25-42.14 19.25H588.13l21.62 71.51c0.24 0.37 17.5 58.89 26.25 156.03 1.88 21.49-12.26 46.5-38.63 49.26-1.51 0.13-3.01 0.25-4.51 0.25-18.75 0-34.75-12.38-38-29.13-1.5-7.51-14.12-71.52-21.5-97.4-16.5-58.01-68.76-113.51-109.64-133.77-15.5-7.76-41.75-12.88-78.13-15.25V151.5v0.13z m-55.5-0.13v444.09h-110.9V151.5h110.9z m-110.9 0" p-id="7333"></path></svg>