<?xml version="1.0" standalone="no"?><!DOCTYPE svg PUBLIC "-//W3C//DTD SVG 1.1//EN" "http://www.w3.org/Graphics/SVG/1.1/DTD/svg11.dtd"><svg t="1624857926547" class="icon" viewBox="0 0 1024 1024" version="1.1" xmlns="http://www.w3.org/2000/svg" p-id="2515" xmlns:xlink="http://www.w3.org/1999/xlink" width="200" height="200"><defs><style type="text/css"></style></defs><path d="M645.502 735.979c0 14.611 11.888 26.5 26.499 26.5H992c14.611 0 26.499-11.889 26.499-26.5S1006.611 709.48 992 709.48H672.001c-14.611 0-26.499 11.887-26.499 26.499z" fill="" p-id="2516"></path><path d="M991.997 965.477H95.92c-20.633-0.041-37.42-16.863-37.42-37.498v-64c0-158.951 87.086-295.758 227.281-357.032 10.357-4.566 18.356-14.717 19.904-25.26 0.798-5.439 0.212-13.235-7.104-19.482-50.914-43.693-80.114-107.196-80.114-174.228 0-126.546 102.954-229.499 229.502-229.499 126.546 0 229.499 102.953 229.499 229.499 0 67.037-29.311 130.633-80.416 174.482-7.093 6.079-7.628 13.759-6.828 19.131 1.578 10.583 9.606 20.744 19.979 25.287 50.586 22.107 94.229 56.543 137.352 108.375a26.478 26.478 0 0 0 20.35 9.514c14.62 0 26.515-11.895 26.515-26.514 0-6.211-2.18-12.236-6.134-16.963-34.999-42.063-76.446-76.479-123.188-102.293l-5.888-3.251 4.356-5.125c42.926-50.504 66.697-114.878 66.934-181.274v-1.369c-0.012-75.448-29.402-146.378-82.757-199.726C594.387 34.903 523.45 5.524 448 5.524c-75.458 0-146.399 29.385-199.757 82.742-53.357 53.356-82.742 124.299-82.742 199.758 0 65.401 22.931 130.563 64.567 183.484l3.939 5.007-5.528 3.167c-66.52 38.102-122.339 93.112-161.425 159.081-40.247 67.93-61.533 145.809-61.553 225.216v64c0 49.9 40.598 90.498 90.499 90.498h895.997c14.611 0 26.498-11.889 26.498-26.5s-11.887-26.5-26.498-26.5z" fill="" p-id="2517"></path><path d="M992 837.479H672.001c-14.611 0-26.499 11.889-26.499 26.5s11.888 26.5 26.499 26.5H992c14.611 0 26.499-11.889 26.499-26.5s-11.888-26.5-26.499-26.5z" fill="" p-id="2518"></path></svg>