<?xml version="1.0" standalone="no"?><!DOCTYPE svg PUBLIC "-//W3C//DTD SVG 1.1//EN" "http://www.w3.org/Graphics/SVG/1.1/DTD/svg11.dtd"><svg t="1623392246850" class="icon" viewBox="0 0 1024 1024" version="1.1" xmlns="http://www.w3.org/2000/svg" p-id="11971" xmlns:xlink="http://www.w3.org/1999/xlink" width="200" height="200"><defs><style type="text/css"></style></defs><path d="M309.76 519.68c-28.16 0-51.2-23.04-51.2-51.2s23.04-51.2 51.2-51.2 51.2 23.04 51.2 51.2-23.04 51.2-51.2 51.2z m0-51.2v25.6-25.6zM719.36 522.24c-28.16 0-51.2-23.04-51.2-51.2s23.04-51.2 51.2-51.2 51.2 23.04 51.2 51.2-23.04 51.2-51.2 51.2z m0-51.2v25.6-25.6z" fill="#333333" p-id="11972"></path><path d="M798.72 890.88H230.4c-40.96 0-74.24-33.28-74.24-74.24V296.96C156.16 256 189.44 222.72 230.4 222.72h568.32c40.96 0 74.24 33.28 74.24 74.24v519.68c0 38.4-33.28 74.24-74.24 74.24zM230.4 273.92c-12.8 0-23.04 10.24-23.04 23.04v519.68c0 12.8 10.24 23.04 23.04 23.04h568.32c12.8 0 23.04-10.24 23.04-23.04V296.96c0-12.8-10.24-23.04-23.04-23.04H230.4z" fill="#333333" p-id="11973"></path><path d="M522.24 622.08h-2.56c-125.44-2.56-215.04-120.32-220.16-125.44l40.96-30.72s79.36 102.4 179.2 104.96c58.88 0 117.76-35.84 174.08-104.96l40.96 30.72c-64 84.48-135.68 125.44-212.48 125.44z" fill="#333333" p-id="11974"></path></svg>