<?xml version="1.0" standalone="no"?><!DOCTYPE svg PUBLIC "-//W3C//DTD SVG 1.1//EN" "http://www.w3.org/Graphics/SVG/1.1/DTD/svg11.dtd"><svg t="1623227489020" class="icon" viewBox="0 0 1024 1024" version="1.1" xmlns="http://www.w3.org/2000/svg" p-id="3597" xmlns:xlink="http://www.w3.org/1999/xlink" width="200" height="200"><defs><style type="text/css"></style></defs><path d="M489.37 694.63a2.92 2.92 0 0 1 0.32 0.21 31.95 31.95 0 0 0 44.75-0.08c0.06-0.06 0.14-0.08 0.18-0.13l226.29-226.28a32 32 0 0 0-45.27-45.25L544 594.74V160a32 32 0 0 0-64 0v434.74L308.36 423.1a32 32 0 0 0-45.27 45.25z" p-id="3598"></path><path d="M864 608a32 32 0 0 0-32 32v158.62C832 817 817.67 832 800 832H224c-17.65 0-32-15-32-33.37V640a32 32 0 0 0-64 0v158.62c0 53.69 43.07 97.37 96 97.37h576c52.94 0 96-43.68 96-97.37V640a32 32 0 0 0-32-32z" p-id="3599"></path></svg>