<?xml version="1.0" standalone="no"?><!DOCTYPE svg PUBLIC "-//W3C//DTD SVG 1.1//EN" "http://www.w3.org/Graphics/SVG/1.1/DTD/svg11.dtd"><svg t="1623392680255" class="icon" viewBox="0 0 1024 1024" version="1.1" xmlns="http://www.w3.org/2000/svg" p-id="22971" xmlns:xlink="http://www.w3.org/1999/xlink" width="200" height="200"><defs><style type="text/css"></style></defs><path d="M722.488889 443.733333c22.755556 0 34.133333-17.066667 34.133333-34.133333 0-22.755556-17.066667-34.133333-34.133333-34.133333s-34.133333 17.066667-34.133333 34.133333 17.066667 34.133333 34.133333 34.133333zM699.733333 472.177778c0-22.755556-17.066667-34.133333-34.133333-34.133334-22.755556 0-34.133333 17.066667-34.133333 34.133334 0 22.755556 17.066667 34.133333 34.133333 34.133333s34.133333-17.066667 34.133333-34.133333z" fill="#333333" p-id="22972"></path><path d="M955.733333 512c-22.755556-233.244444-130.844444-312.888889-221.866666-312.888889-34.133333 0-56.888889 11.377778-79.644445 28.444445-28.444444 17.066667-62.577778 34.133333-142.222222 34.133333s-113.777778-22.755556-142.222222-39.822222c-22.755556-11.377778-45.511111-22.755556-79.644445-22.755556-96.711111 0-199.111111 79.644444-227.555555 312.888889-17.066667 164.977778-11.377778 261.688889 28.444444 307.2 17.066667 17.066667 39.822222 28.444444 62.577778 28.444444 62.577778 0 96.711111-34.133333 136.533333-79.644444l45.511111-45.511111c45.511111-34.133333 85.333333-39.822222 125.155556-39.822222h96.711111c39.822222 0 79.644444 5.688889 125.155556 39.822222 17.066667 11.377778 28.444444 28.444444 45.511111 45.511111 39.822222 39.822222 73.955556 79.644444 136.533333 79.644444 28.444444 0 45.511111-11.377778 62.577778-28.444444 39.822222-45.511111 51.2-142.222222 28.444444-307.2z m-73.955555 267.377778c-11.377778 11.377778-11.377778 11.377778-22.755556 11.377778-34.133333 0-56.888889-17.066667-91.022222-56.888889l-51.2-51.2c-56.888889-51.2-113.777778-56.888889-159.288889-56.888889H460.8c-51.2 0-108.088889 5.688889-159.288889 56.888889l-45.511111 45.511111c-39.822222 39.822222-56.888889 56.888889-96.711111 56.888889-5.688889 0-11.377778 0-17.066667-11.377778-17.066667-17.066667-39.822222-73.955556-17.066666-261.688889 17.066667-164.977778 79.644444-261.688889 170.666666-261.688889 17.066667 0 28.444444 5.688889 51.2 17.066667 34.133333 22.755556 79.644444 45.511111 170.666667 45.511111 85.333333 0 136.533333-22.755556 170.666667-45.511111 22.755556-11.377778 34.133333-17.066667 51.2-17.066667 62.577778 0 147.911111 68.266667 164.977777 261.688889 17.066667 182.044444 0 244.622222-22.755555 267.377778z" fill="#333333" p-id="22973"></path><path d="M455.111111 438.044444H392.533333V375.466667c0-17.066667-11.377778-28.444444-28.444444-28.444445s-28.444444 11.377778-28.444445 28.444445v62.577777H273.066667c-17.066667 0-28.444444 11.377778-28.444445 28.444445s11.377778 28.444444 28.444445 28.444444h62.577777v62.577778c0 17.066667 11.377778 28.444444 28.444445 28.444445s28.444444-11.377778 28.444444-28.444445v-56.888889H455.111111c17.066667 0 28.444444-11.377778 28.444445-28.444444s-11.377778-34.133333-28.444445-34.133334zM722.488889 500.622222c-5.688889 0-11.377778 0-17.066667 5.688889-17.066667 5.688889-22.755556 28.444444-11.377778 45.511111 5.688889 5.688889 5.688889 11.377778 11.377778 11.377778 17.066667 11.377778 39.822222 5.688889 51.2-11.377778 5.688889-5.688889 5.688889-11.377778 5.688889-17.066666 0-17.066667-17.066667-34.133333-39.822222-34.133334zM768 438.044444c-17.066667 11.377778-22.755556 34.133333-11.377778 51.2 11.377778 17.066667 34.133333 22.755556 51.2 11.377778 17.066667-11.377778 22.755556-34.133333 11.377778-51.2-11.377778-11.377778-34.133333-17.066667-51.2-11.377778z" fill="#333333" p-id="22974"></path></svg>