<?xml version="1.0" standalone="no"?><!DOCTYPE svg PUBLIC "-//W3C//DTD SVG 1.1//EN" "http://www.w3.org/Graphics/SVG/1.1/DTD/svg11.dtd"><svg t="1623392838056" class="icon" viewBox="0 0 1024 1024" version="1.1" xmlns="http://www.w3.org/2000/svg" p-id="29016" xmlns:xlink="http://www.w3.org/1999/xlink" width="200" height="200"><defs><style type="text/css"></style></defs><path d="M670.8 232.5H782c80.6 0 146 65.4 146 146v422.7c0 80.6-65.4 146-146 146H244c-80.6 0-146-65.4-146-146V378.5c0-80.6 65.4-146 146-146h107.1l-57.5-108.6c-7.6-15.2-1.5-33.6 13.7-41.3C322 75.2 340 80.8 348 95.2l72.7 137.3h180.5l72.7-137.3c7.9-15 26.5-20.8 41.6-12.8s20.8 26.5 12.8 41.6l-57.5 108.5zM244 294c-46.7 0-84.5 37.9-84.5 84.5v422.7c0 46.7 37.9 84.5 84.5 84.5h538c46.7 0 84.5-37.9 84.5-84.5V378.5c0-46.7-37.9-84.5-84.5-84.5H244z" p-id="29017"></path><path d="M366.9 470.1V725c0 27.6 22.4 50 49.9 50 9.1 0 18-2.5 25.7-7.1L655 640.4c23.7-14.2 31.3-44.9 17.2-68.5-4.2-7-10.1-12.9-17.2-17.2L442.6 427.3c-23.7-14.2-54.3-6.5-68.5 17.1-4.7 7.7-7.2 16.6-7.2 25.7z m240 127.5L428.4 704.7V490.5l178.5 107.1z" p-id="29018"></path></svg>