<?xml version="1.0" standalone="no"?><!DOCTYPE svg PUBLIC "-//W3C//DTD SVG 1.1//EN" "http://www.w3.org/Graphics/SVG/1.1/DTD/svg11.dtd"><svg t="1623384645197" class="icon" viewBox="0 0 1024 1024" version="1.1" xmlns="http://www.w3.org/2000/svg" p-id="11038" xmlns:xlink="http://www.w3.org/1999/xlink" width="200" height="200"><defs><style type="text/css"></style></defs><path d="M505.856 90.112c165.888 0 313.344 98.304 380.928 249.856 8.192 18.432 26.624 30.72 47.104 30.72 20.48 0 38.912-12.288 47.104-30.72l34.816-77.824c8.192-18.432 0-38.912-18.432-45.056-18.432-8.192-38.912 0-45.056 18.432l-18.432 40.96C849.92 118.784 686.08 20.48 505.856 20.48 251.904 20.48 45.056 217.088 24.576 466.944c-2.048 20.48 14.336 36.864 34.816 36.864 18.432 0 32.768-14.336 34.816-32.768 16.384-212.992 194.56-380.928 411.648-380.928zM505.856 917.504c-161.792 0-309.248-94.208-376.832-241.664-8.192-20.48-28.672-30.72-49.152-30.72s-38.912 14.336-47.104 34.816L8.192 745.472c-6.144 18.432 2.048 38.912 20.48 45.056 18.432 6.144 38.912-2.048 45.056-20.48l10.24-28.672c86.016 151.552 245.76 245.76 421.888 245.76 253.952 0 462.848-196.608 481.28-446.464 2.048-20.48-14.336-36.864-34.816-36.864-18.432 0-32.768 14.336-34.816 32.768-14.336 212.992-194.56 380.928-411.648 380.928z" fill="#231815" p-id="11039"></path><path d="M716.8 430.08c0-18.432-16.384-34.816-34.816-34.816h-59.392v-81.92c0-18.432-16.384-34.816-34.816-34.816-18.432 0-34.816 16.384-34.816 34.816v81.92h-106.496v-81.92c0-18.432-16.384-34.816-34.816-34.816-18.432 0-34.816 16.384-34.816 34.816v81.92h-55.296c-18.432 0-34.816 16.384-34.816 34.816 0 18.432 16.384 34.816 34.816 34.816h145.408v102.4h-145.408c-18.432 0-34.816 16.384-34.816 34.816 0 18.432 16.384 34.816 34.816 34.816h145.408v86.016c0 18.432 16.384 34.816 34.816 34.816 18.432 0 34.816-16.384 34.816-34.816v-86.016h145.408c18.432 0 34.816-16.384 34.816-34.816 0-18.432-16.384-34.816-34.816-34.816h-145.408v-102.4h145.408c20.48 0 34.816-14.336 34.816-34.816z" fill="#231815" p-id="11040"></path></svg>