<?xml version="1.0" standalone="no"?><!DOCTYPE svg PUBLIC "-//W3C//DTD SVG 1.1//EN" "http://www.w3.org/Graphics/SVG/1.1/DTD/svg11.dtd"><svg t="1623384441445" class="icon" viewBox="0 0 1024 1024" version="1.1" xmlns="http://www.w3.org/2000/svg" p-id="6454" xmlns:xlink="http://www.w3.org/1999/xlink" width="200" height="200"><defs><style type="text/css"></style></defs><path d="M793.758 593.769c106.724 0 193.242 86.46 193.242 193.115C987 893.54 900.482 980 793.758 980c-106.725 0-193.243-86.46-193.243-193.116 0-106.654 86.518-193.115 193.243-193.115zM517.697 65c243.942 0 441.697 197.625 441.697 441.407 0 16.506-13.39 29.887-29.907 29.887-16.28 0-29.523-13.001-29.898-29.182l-0.008-0.705c0-210.77-170.975-381.633-381.884-381.633-210.909 0-381.884 170.863-381.884 381.633 0 208.663 167.573 378.212 375.569 381.582l6.315 0.051c16.517 0 29.907 13.381 29.907 29.887s-13.39 29.887-29.907 29.887C273.754 947.814 76 750.19 76 506.407 76 262.625 273.754 65 517.697 65z m276.06 588.543c-73.69 0-133.429 59.699-133.429 133.341 0 73.643 59.739 133.342 133.43 133.342 73.69 0 133.429-59.699 133.429-133.342 0-73.642-59.738-133.341-133.43-133.341z m0.576 29.887c16.28 0 29.523 13 29.898 29.181l0.008 0.706v44.255h43.135c16.517 0 29.906 13.381 29.906 29.887 0 16.27-13.01 29.504-29.2 29.879l-0.706 0.008h-43.135v43.106c0 16.506-13.39 29.887-29.906 29.887-16.281 0-29.524-13.001-29.899-29.181l-0.008-0.706v-43.106h-44.285c-16.517 0-29.906-13.38-29.906-29.887 0-16.27 13.01-29.504 29.2-29.879l0.706-0.008h44.285v-44.255c0-16.507 13.39-29.887 29.907-29.887zM429.305 312.85l87.48 87.42 86.695-86.636c11.564-11.557 30.234-11.673 41.941-0.347l0.353 0.347 0.014 0.014c11.547 11.555 11.656 30.21 0.332 41.9l-0.346 0.352-86.048 85.991h77.617c16.506 0 29.887 13.381 29.887 29.888 0 16.506-13.381 29.886-29.887 29.886h-88.59v45.98H669.55c16.506 0 29.887 13.381 29.887 29.887s-13.381 29.887-29.887 29.887H548.754v73.246c0 16.349-13.12 29.632-29.406 29.896l-0.494 0.004h-0.013c-16.349 0-29.632-13.12-29.896-29.405l-0.004-0.495v-73.247l-120.796 0.001c-16.507 0-29.887-13.38-29.887-29.887 0-16.506 13.38-29.887 29.887-29.887H488.94v-45.98h-88.59c-16.506 0-29.886-13.38-29.886-29.886 0-16.507 13.38-29.887 29.887-29.887h73.492l-86.833-86.776c-11.672-11.664-11.678-30.581-0.014-42.253l0.014-0.014c11.681-11.674 30.613-11.674 42.294 0z" fill="#333333" p-id="6455"></path></svg>