<?xml version="1.0" standalone="no"?><!DOCTYPE svg PUBLIC "-//W3C//DTD SVG 1.1//EN" "http://www.w3.org/Graphics/SVG/1.1/DTD/svg11.dtd"><svg t="1623393045899" class="icon" viewBox="0 0 1024 1024" version="1.1" xmlns="http://www.w3.org/2000/svg" p-id="35485" xmlns:xlink="http://www.w3.org/1999/xlink" width="200" height="200"><defs><style type="text/css"></style></defs><path d="M832 160H192c-70.4 0-128 57.6-128 128v448c0 70.4 57.6 128 128 128h640c70.4 0 128-57.6 128-128V288c0-70.4-57.6-128-128-128z m64 576c0 35.2-28.8 64-64 64H192c-35.2 0-64-28.8-64-64V288c0-35.2 28.8-64 64-64h640c35.2 0 64 28.8 64 64v448z" p-id="35486"></path><path d="M452.048 524.423C488.061 501.773 512 461.685 512 416c0-70.692-57.308-128-128-128s-128 57.308-128 128c0 45.685 23.939 85.773 59.952 108.423C243.505 551.891 192 621.925 192 704c0 17.673 14.327 32 32 32s32-14.327 32-32c0-70.692 57.308-128 128-128s128 57.308 128 128c0 17.673 14.327 32 32 32s32-14.327 32-32c0-82.075-51.505-152.109-123.952-179.577zM384 352c35.346 0 64 28.654 64 64 0 35.346-28.654 64-64 64s-64-28.654-64-64c0-35.346 28.654-64 64-64zM800 416H640c-17.6 0-32 14.4-32 32s14.4 32 32 32h160c17.6 0 32-14.4 32-32s-14.4-32-32-32zM704 544h-64c-17.6 0-32 14.4-32 32s14.4 32 32 32h64c17.6 0 32-14.4 32-32s-14.4-32-32-32z" p-id="35487"></path></svg>