<?xml version="1.0" standalone="no"?><!DOCTYPE svg PUBLIC "-//W3C//DTD SVG 1.1//EN" "http://www.w3.org/Graphics/SVG/1.1/DTD/svg11.dtd"><svg t="1623392484283" class="icon" viewBox="0 0 1024 1024" version="1.1" xmlns="http://www.w3.org/2000/svg" p-id="17940" xmlns:xlink="http://www.w3.org/1999/xlink" width="200" height="200"><defs><style type="text/css"></style></defs><path d="M710.59968 522.71104a56.832 56.832 0 0 0-28.34944-49.1008L487.25504 361.03168A56.68864 56.68864 0 0 0 402.22208 410.112v225.1776a56.71936 56.71936 0 0 0 85.03296 49.09056l194.9952-112.58368a56.832 56.832 0 0 0 28.34944-49.08544z m-236.032 85.43744V437.248l147.968 85.43744z m406.2976 266.69568h-130.74432A437.46304 437.46304 0 1 0 509.44 947.2q11.5456 0 22.94272-0.60416a36.16768 36.16768 0 0 0 6.00064 0.60416h342.49216a36.17792 36.17792 0 1 0 0-72.35584zM144.03584 509.44A365.40416 365.40416 0 1 1 509.44 874.84416 365.81888 365.81888 0 0 1 144.03584 509.44z" fill="#595BB3" p-id="17941"></path></svg>